<?xml version="1.0" standalone="no"?>
<!DOCTYPE svg PUBLIC "-//W3C//DTD SVG 20010904//EN"
 "http://www.w3.org/TR/2001/REC-SVG-20010904/DTD/svg10.dtd">
<svg version="1.0" xmlns="http://www.w3.org/2000/svg"
 width="625.000000pt" height="625.000000pt" viewBox="0 0 625.000000 625.000000"
 preserveAspectRatio="xMidYMid meet">
<metadata>
Created by potrace 1.14, written by Peter Selinger 2001-2017
</metadata>
<g transform="translate(0.000000,625.000000) scale(0.100000,-0.100000)"
fill="#000000" stroke="none">
<path d="M0 4725 l0 -1525 188 0 189 0 73 -122 c322 -543 302 -512 319 -489 9
12 93 154 186 316 l170 295 188 0 c104 0 186 -3 184 -7 -3 -5 -136 -215 -296
-467 l-291 -460 0 -338 0 -338 -162 2 -163 3 -5 346 -5 345 -51 80 c-62 95
-495 781 -512 809 -9 15 -11 -367 -12 -1577 l0 -1598 3125 0 3125 0 0 3125 0
3125 -3125 0 -3125 0 0 -1525z m1338 928 l-3 -138 -232 -3 -233 -2 -2 -663 -3
-662 -162 -3 -163 -2 0 665 0 665 -238 2 -237 3 -3 138 -3 137 641 0 641 0 -3
-137z m462 -3 l0 -141 -152 3 -153 3 -3 138 -3 137 156 0 155 0 0 -140z m920
-316 c37 -18 89 -55 120 -84 l55 -54 3 77 3 78 142 -3 142 -3 0 -615 c-1 -677
-1 -684 -64 -808 -47 -92 -111 -142 -236 -184 -63 -21 -87 -23 -255 -23 -199
0 -265 11 -359 60 -56 29 -122 95 -151 153 -22 45 -40 182 -24 182 5 0 81 -9
168 -20 88 -11 163 -20 167 -20 4 0 12 -15 19 -34 16 -50 50 -75 116 -88 74
-13 189 4 236 35 59 40 70 73 76 223 3 81 1 134 -5 134 -5 0 -25 -16 -44 -36
-69 -72 -193 -124 -298 -124 -208 0 -374 131 -448 354 -24 74 -27 95 -27 236
-1 171 11 233 64 344 51 108 184 217 296 245 22 6 84 9 139 8 88 -2 108 -6
165 -33z m1362 25 c170 -35 305 -158 363 -329 29 -86 60 -305 48 -337 -4 -10
-91 -13 -390 -13 l-386 0 6 -50 c17 -139 118 -239 244 -240 90 0 149 37 184
118 11 26 25 42 36 42 60 0 276 -36 280 -46 8 -23 -70 -158 -122 -209 -156
-156 -437 -190 -660 -80 -123 60 -207 165 -253 318 -21 69 -25 103 -26 217 0
96 5 155 17 204 49 197 177 340 356 397 65 21 221 25 303 8z m1314 -4 c27 -8
58 -21 69 -29 20 -14 20 -16 -14 -113 -19 -54 -40 -112 -48 -129 l-12 -32 -62
25 c-95 38 -175 18 -224 -55 -49 -74 -57 -139 -62 -504 l-5 -338 -154 0 -154
0 2 583 3 582 140 0 140 0 5 -75 5 -75 38 52 c38 53 79 88 127 110 36 16 148
16 206 -2z m-3596 -590 l0 -585 -155 0 -155 0 0 578 c0 318 3 582 7 585 3 4
73 7 155 7 l148 0 0 -585z m322 -1996 c82 -17 172 -65 238 -126 105 -97 159
-241 175 -465 l6 -88 -390 0 c-241 0 -391 -4 -391 -10 0 -27 25 -120 41 -151
21 -43 80 -96 125 -115 40 -17 122 -18 161 -3 39 14 87 64 108 110 10 21 25
39 33 39 38 0 278 -33 285 -39 13 -13 -62 -149 -113 -205 -150 -163 -458 -204
-682 -90 -119 60 -221 206 -254 364 -25 117 -15 331 20 429 36 101 70 156 137
221 65 64 132 103 210 124 65 18 218 20 291 5z"/>
<path d="M2524 5116 c-107 -50 -154 -153 -154 -340 0 -110 12 -172 43 -232 21
-39 86 -100 120 -113 41 -16 132 -13 175 4 46 20 108 78 131 125 43 84 56 226
31 345 -16 77 -33 110 -83 163 -70 72 -172 91 -263 48z"/>
<path d="M3875 5124 c-47 -17 -98 -64 -120 -110 -23 -50 -36 -127 -22 -136 16
-10 428 -10 444 0 16 10 -3 107 -28 149 -60 97 -169 136 -274 97z"/>
<path d="M1899 2523 c-64 -33 -114 -100 -125 -168 -11 -79 -22 -76 228 -73
l223 3 -3 44 c-4 62 -37 132 -77 164 -81 64 -159 74 -246 30z"/>
</g>
</svg>
